<?xml version="1.0" encoding="UTF-8" standalone="no"?>
<!-- Created with Inkscape (http://www.inkscape.org/) -->

<svg
   xmlns:dc="http://purl.org/dc/elements/1.1/"
   xmlns:cc="http://creativecommons.org/ns#"
   xmlns:rdf="http://www.w3.org/1999/02/22-rdf-syntax-ns#"
   xmlns:svg="http://www.w3.org/2000/svg"
   xmlns="http://www.w3.org/2000/svg"
   xmlns:xlink="http://www.w3.org/1999/xlink"
   xmlns:sodipodi="http://sodipodi.sourceforge.net/DTD/sodipodi-0.dtd"
   xmlns:inkscape="http://www.inkscape.org/namespaces/inkscape"
   width="48px"
   height="48px"
   id="svg2985"
   version="1.1"
   inkscape:version="0.91 r13725"
   sodipodi:docname="phpstorm.svg"
   inkscape:export-filename="/home/spooky/Downloads/icon-requests/intellij/phpstorm.svg.png"
   inkscape:export-xdpi="90"
   inkscape:export-ydpi="90">
  <defs
     id="defs2987">
    <linearGradient
       inkscape:collect="always"
       id="linearGradient4190">
      <stop
         style="stop-color:#a94af2;stop-opacity:1"
         offset="0"
         id="stop4192" />
      <stop
         style="stop-color:#f032a4;stop-opacity:1"
         offset="1"
         id="stop4194" />
    </linearGradient>
    <linearGradient
       id="linearGradient5461"
       inkscape:collect="always">
      <stop
         id="stop5463"
         offset="0"
         style="stop-color:#cdd0d1;stop-opacity:1" />
      <stop
         id="stop5465"
         offset="1"
         style="stop-color:#f6f6f7;stop-opacity:1" />
    </linearGradient>
    <linearGradient
       inkscape:collect="always"
       id="linearGradient5358">
      <stop
         style="stop-color:#16a085;stop-opacity:1"
         offset="0"
         id="stop5360" />
      <stop
         style="stop-color:#2dcb72;stop-opacity:1"
         offset="1"
         id="stop5362" />
    </linearGradient>
    <linearGradient
       inkscape:collect="always"
       id="linearGradient4303">
      <stop
         style="stop-color:#989a9b;stop-opacity:1"
         offset="0"
         id="stop4305" />
      <stop
         style="stop-color:#f6f6f7;stop-opacity:1"
         offset="1"
         id="stop4307" />
    </linearGradient>
    <clipPath
       id="clipPath4458-7">
      <path
         style="fill:url(#linearGradient3441);fill-opacity:1"
         inkscape:connector-curvature="0"
         id="use4460-2"
         d="m 69.626,12.145 -0.052,0 c -22.727,-0.292 -46.472,4.077 -46.709,4.122 -2.424,0.451 -4.946,2.974 -5.397,5.397 -0.044,0.237 -4.414,23.983 -4.122,46.71 -0.292,22.777 4.078,46.523 4.122,46.761 0.451,2.423 2.974,4.945 5.398,5.398 0.237,0.044 23.982,4.413 46.709,4.121 22.779,0.292 46.524,-4.077 46.761,-4.121 2.423,-0.452 4.946,-2.976 5.398,-5.399 0.044,-0.236 4.413,-23.981 4.121,-46.709 0.292,-22.777 -4.077,-46.523 -4.121,-46.761 -0.453,-2.423 -2.976,-4.946 -5.398,-5.397 -0.238,-0.045 -23.984,-4.414 -46.71,-4.122 z" />
    </clipPath>
    <linearGradient
       inkscape:collect="always"
       xlink:href="#linearGradient5461"
       id="linearGradient5459"
       x1="31.190088"
       y1="56.636845"
       x2="29.945402"
       y2="32.58942"
       gradientUnits="userSpaceOnUse"
       gradientTransform="translate(-19.529425,0.29148396)" />
    <linearGradient
       inkscape:collect="always"
       xlink:href="#linearGradient5358"
       id="linearGradient5475"
       x1="37.455688"
       y1="27.792406"
       x2="28.53301"
       y2="19.966999"
       gradientUnits="userSpaceOnUse"
       gradientTransform="translate(-23.027232,19.675167)" />
    <linearGradient
       inkscape:collect="always"
       xlink:href="#linearGradient4303"
       id="linearGradient3441"
       gradientUnits="userSpaceOnUse"
       x1="2.3531249"
       y1="1044.3799"
       x2="13.377196"
       y2="1044.3799" />
    <filter
       inkscape:label="Blend Opposites"
       inkscape:menu="Color"
       inkscape:menu-tooltip="Blend an image with its hue opposite"
       style="color-interpolation-filters:sRGB;"
       id="filter3653">
      <feColorMatrix
         type="hueRotate"
         values="180"
         result="fbSourceGraphic"
         in="SourceGraphic"
         id="feColorMatrix3655" />
      <feColorMatrix
         values="1 0 0 0 0 0 1 0 0 0 0 0 1 0 0 -0.2125 -0.7154 -0.0721 1 0 "
         in="SourceGraphic"
         result="result1"
         id="feColorMatrix3657" />
      <feColorMatrix
         type="hueRotate"
         values="0"
         id="feColorMatrix3659" />
      <feColorMatrix
         values="1 0 0 0 0 0 1 0 0 0 0 0 1 0 0 0 0 0 1 0 "
         result="result3"
         id="feColorMatrix3661" />
      <feComposite
         in2="result3"
         result="result6"
         operator="atop"
         id="feComposite3663" />
      <feComposite
         in2="result6"
         operator="arithmetic"
         k2="0.5"
         k1="0.5"
         k3="0.5"
         in="result6"
         result="result4"
         id="feComposite3665" />
      <feBlend
         in2="fbSourceGraphic"
         mode="normal"
         result="result2"
         in="result4"
         id="feBlend3667" />
      <feComposite
         in2="result2"
         operator="arithmetic"
         k2="1"
         result="result5"
         id="feComposite3669" />
      <feComposite
         in2="SourceGraphic"
         operator="in"
         result="result5"
         id="feComposite3671" />
    </filter>
    <filter
       style="color-interpolation-filters:sRGB;"
       inkscape:label="Greyscale"
       id="filter3673">
      <feColorMatrix
         values="0.21 0.72 0.072 0 0 0.21 0.72 0.072 0 0 0.21 0.72 0.072 0 0 0 0 0 1 0 "
         id="feColorMatrix3675" />
    </filter>
    <linearGradient
       inkscape:collect="always"
       xlink:href="#linearGradient4190"
       id="linearGradient4211"
       gradientUnits="userSpaceOnUse"
       x1="54.109722"
       y1="44.293541"
       x2="80.213158"
       y2="1.1134603"
       gradientTransform="matrix(1.0291854,0,0,1.0291854,-91.958777,6.3111308)" />
  </defs>
  <sodipodi:namedview
     id="base"
     pagecolor="#5a5a5a"
     bordercolor="#e3e3e3"
     borderopacity="1"
     inkscape:pageopacity="0"
     inkscape:pageshadow="2"
     inkscape:zoom="9.7035431"
     inkscape:cx="-1.8324938"
     inkscape:cy="24.127262"
     inkscape:current-layer="g5481"
     showgrid="false"
     inkscape:grid-bbox="true"
     inkscape:document-units="px"
     inkscape:snap-global="true"
     inkscape:window-width="1440"
     inkscape:window-height="832"
     inkscape:window-x="0"
     inkscape:window-y="32"
     inkscape:window-maximized="1"
     inkscape:snap-bbox="true"
     inkscape:bbox-nodes="true"
     showguides="true"
     inkscape:showpageshadow="false"
     showborder="true">
    <inkscape:grid
       type="xygrid"
       id="grid2993" />
  </sodipodi:namedview>
  <metadata
     id="metadata2990">
    <rdf:RDF>
      <cc:Work
         rdf:about="">
        <dc:format>image/svg+xml</dc:format>
        <dc:type
           rdf:resource="http://purl.org/dc/dcmitype/StillImage" />
        <dc:title></dc:title>
      </cc:Work>
    </rdf:RDF>
  </metadata>
  <g
     id="layer1"
     inkscape:label="Layer 1"
     inkscape:groupmode="layer">
    <g
       id="g5481"
       transform="matrix(0.77761806,-0.01071721,0.01071721,0.77761806,30.946456,-1.6787268)">
      <rect
         ry="1.5437782"
         transform="matrix(0.99999416,-0.00341659,0.00341659,0.99999416,0,0)"
         y="8.5719137"
         x="-33.838921"
         height="37.355316"
         width="49.639671"
         id="rect4209"
         style="opacity:1;fill:#8159f7;fill-opacity:1;fill-rule:nonzero;stroke:none;stroke-width:2;stroke-miterlimit:4;stroke-dasharray:4, 2;stroke-dashoffset:0;stroke-opacity:1" />
      <g
         transform="matrix(0.9857059,-0.16847515,0.16847515,0.9857059,-48.699083,-8.9827573)"
         id="g5405">
        <g
           id="g5366"
           transform="matrix(1.0962056,0,0,1.0962056,0.51279347,-1.9879883)" />
      </g>
      <rect
         transform="matrix(0.98818625,-0.15325775,0.15325775,0.98818625,0,0)"
         ry="1.5437782"
         y="13.684669"
         x="-42.623764"
         height="37.355072"
         width="49.639862"
         id="rect4851-2"
         style="opacity:1;fill:url(#linearGradient4211);fill-opacity:1;stroke:none;stroke-width:1.5;stroke-linecap:round;stroke-linejoin:round;stroke-miterlimit:4;stroke-dasharray:none;stroke-opacity:1" />
      <circle
         transform="matrix(0.78017865,0,0,0.78017865,2.5819378,10.521665)"
         r="12.348694"
         cy="45.12323"
         cx="11.184063"
         id="path5451"
         style="opacity:1;fill:url(#linearGradient5459);fill-opacity:1;stroke:none;stroke-width:0.30261195;stroke-linecap:round;stroke-linejoin:round;stroke-miterlimit:4;stroke-dasharray:none;stroke-opacity:1;filter:url(#filter3673)" />
      <path
         transform="matrix(-0.0138427,0.90747861,-0.90747861,-0.0138427,51.546127,37.320471)"
         inkscape:transform-center-y="0.020206899"
         inkscape:transform-center-x="-1.4810216"
         d="M 14.428456,47.271288 5.5057777,47.467572 9.7971304,39.642164 Z"
         inkscape:randomized="0"
         inkscape:rounded="0"
         inkscape:flatsided="true"
         sodipodi:arg2="1.5488016"
         sodipodi:arg1="0.50160405"
         sodipodi:r2="2.5763786"
         sodipodi:r1="5.1527572"
         sodipodi:cy="44.793674"
         sodipodi:cx="9.9104548"
         sodipodi:sides="3"
         id="path5467"
         style="opacity:1;fill:url(#linearGradient5475);fill-opacity:1;stroke:none;stroke-width:0.30000001;stroke-linecap:round;stroke-linejoin:round;stroke-miterlimit:4;stroke-dasharray:none;stroke-opacity:1;filter:url(#filter3673)"
         sodipodi:type="star" />
      <path
         inkscape:connector-curvature="0"
         id="path4466"
         d="m -20.714119,43.42069 -0.14602,-0.864909 -4.929973,0.832381 -4.929971,0.832382 0.101403,0.919665 0.101402,0.919665 4.9746,-0.887133 4.9746,-0.887133 -0.14602,-0.864909 z m 7.011842,-9.049764 c 1.178886,-0.895092 1.683993,-2.144048 1.443398,-3.56903 -0.33408,-1.978683 -1.522546,-2.769169 -4.673372,-3.108411 -1.889009,-0.203384 -2.50922,-0.444186 -2.604991,-1.011395 -0.179235,-1.061431 1.464315,-1.551081 3.387579,-1.00924 l 1.213899,0.341992 0.452725,-0.756961 c 0.62004,-1.036711 0.648725,-1.565625 0.101647,-1.874081 -1.53711,-0.86666 -5.154628,-0.673228 -6.47176,0.34605 -1.97222,1.52623 -2.174151,4.358151 -0.405439,5.686089 0.777367,0.583642 1.643798,0.829393 3.662193,1.038736 2.413171,0.250289 3.152427,0.840956 2.269709,1.813504 -0.705053,0.776804 -2.721799,0.825228 -4.297883,0.103198 -0.365334,-0.167365 -0.749909,-0.233311 -0.85461,-0.146554 -0.373544,0.309537 -1.171619,1.85348 -1.057721,2.046247 0.188608,0.319212 1.774343,0.912467 2.894646,1.082944 1.444058,0.219744 4.034828,-0.295837 4.939981,-0.983092 z m -15.587667,2.536119 c 0.01307,-0.222373 -0.06178,-1.030358 -0.166331,-1.795522 l -0.190079,-1.391209 1.885283,-0.424991 c 1.036906,-0.233743 2.102954,-0.558317 2.368998,-0.721272 1.633807,-1.000739 2.334469,-2.506355 2.023496,-4.348185 -0.23145,-1.370872 -0.719522,-2.114702 -1.867781,-2.846571 -1.252416,-0.798258 -1.79921,-0.81751 -5.495144,-0.193486 l -3.286648,0.554919 0.932571,5.801354 c 0.512919,3.190745 0.986651,5.892869 1.052747,6.004719 0.08173,0.138337 0.535714,0.133205 1.419653,-0.01604 1.205797,-0.203586 1.301209,-0.248566 1.323245,-0.623721 z m -0.82197,-5.906924 c -0.07549,-0.127757 -0.225039,-0.891289 -0.33234,-1.696735 l -0.195107,-1.464444 1.028812,-0.229004 c 1.39451,-0.310403 2.137028,-0.273446 2.711354,0.134954 0.693895,0.493427 0.805755,1.379179 0.279682,2.214654 -0.392944,0.624055 -0.46847,0.662636 -1.882252,0.961501 -1.162271,0.245701 -1.501828,0.262382 -1.610136,0.07907 z"
         style="fill:#ffffff"
         sodipodi:nodetypes="ccccccccccssscscssssssssssscscssssscscscccccsssscc" />
    </g>
  </g>
</svg>
